<?xml version="1.0" encoding="utf-8"?>
<!-- Generator: Adobe Illustrator 15.0.2, SVG Export Plug-In . SVG Version: 6.00 Build 0)  -->
<!DOCTYPE svg PUBLIC "-//W3C//DTD SVG 1.1//EN" "http://www.w3.org/Graphics/SVG/1.1/DTD/svg11.dtd">
<svg version="1.1" id="Layer_1" xmlns="http://www.w3.org/2000/svg" xmlns:xlink="http://www.w3.org/1999/xlink" x="0px" y="0px"
	 width="512.001px" height="483.284px" viewBox="0 0 512.001 483.284" enable-background="new 0 0 512.001 483.284"
	 xml:space="preserve">
<g>
	<path d="M270.046,144.12c-30.138,2.581-60.259,5.529-89.397,14.238c-59.773,17.906-90.285,58.343-89.303,118.041
		c0.89,53.795,32.006,89.486,85.457,95.192c34.452,3.661,67.531-2.038,95.491-24.931c8.01-6.549,15.516-13.716,22.602-19.999
		c11.582,12.784,22.458,25.501,34.128,37.471c7.392,7.581,14.524,7.282,22.476,0.469c14.918-12.744,29.74-25.597,44.576-38.442
		c8.01-6.956,9.049-13.145,1.861-21.283c-17.594-19.938-23.681-42.844-23.219-69.249c0.829-47.022,0.448-94.109-1.114-141.104
		c-1.195-36.153-19.251-63.064-52.555-77.799C269.924-5.883,218.115-5.38,167.133,17.078c-34.428,15.193-55.489,42.267-63.72,79.14
		c-2.7,12.119,0.53,16.64,12.73,18.104c17.591,2.106,35.165,4.361,52.735,6.654c9.69,1.267,15.081-1.641,17.18-11.345
		c6.257-28.895,34.818-43.19,61.899-39.169c17.482,2.595,30.512,13.654,33.188,30.406c2.167,13.627,2.011,27.634,2.867,41.326
		c-2.296,0.625-3.166,1.009-4.076,1.083C276.642,143.606,273.348,143.835,270.046,144.12z M268.762,281.657
		c-8.776,13.26-20.026,22.825-35.857,25.488c-25.654,4.307-44.529-12.201-46.414-39.91c-2.47-36.296,16.062-61.155,51.886-68.044
		c14.449-2.781,29.306-3.45,44.672-5.159C283.197,225.369,286.336,255.089,268.762,281.657z"/>
	<path d="M432.548,386.972c-2.479,0.733-4.856,1.82-7.248,2.832c-34.184,14.585-69.324,26.072-105.827,33.273
		c-34.462,6.813-69.157,10.251-104.274,6.997c-43.16-3.961-83.424-17.846-121.92-37.03c-24.5-12.207-48.429-25.549-72.67-38.272
		c-7.605-3.994-14.575-2.812-18.478,2.718c-3.852,5.448-2.517,12.614,4.287,17.975c24.123,18.979,47.613,38.911,72.887,56.247
		c47.113,32.309,99.054,51.601,166.815,51.573c55.052-1.386,115.603-18.164,171.646-50.771c9.979-5.802,19.531-12.418,28.851-19.245
		c7.106-5.203,8.628-12.853,5-19.401C448.111,387.542,440.347,384.662,432.548,386.972z"/>
	<path d="M484.617,333.659c-26.643-2.697-52.375,0.543-74.86,16.989c-5.217,3.804-8.247,8.953-5.394,15.325
		c2.717,6.073,8.274,6.854,14.442,5.985c11.677-1.638,23.396-2.976,35.106-4.443c0.027,0.299,0.055,0.598,0.082,0.91
		c4.259,0,8.505-0.054,12.751,0.014c4.918,0.089,7.54,2.229,6.405,7.514c-1.243,5.761-2.085,11.644-3.824,17.247
		c-3.349,10.815-7.67,21.338-10.563,32.254c-0.91,3.438,0.218,9.212,2.649,11.277c2.771,2.337,8.172,2.669,12.2,2.126
		c2.84-0.374,5.604-3.322,7.86-5.646c17.961-18.586,27.111-41.336,29.842-66.613C513.991,341.77,509.589,336.179,484.617,333.659z"
		/>
</g>
</svg>
